<?xml version="1.0" encoding="UTF-8" standalone="no"?>
<!-- Created with Inkscape (http://www.inkscape.org/) -->

<svg
   width="69.818344"
   height="70.150414"
   viewBox="0 0 18.472769 18.560631"
   version="1.1"
   id="svg1"
   xml:space="preserve"
   xmlns="http://www.w3.org/2000/svg"
   xmlns:svg="http://www.w3.org/2000/svg"><defs
     id="defs1"><style
       id="style1">.e{fill:url(#c);}.f{fill:#fffffa;}</style><style
       id="style1-3">.d{fill:#fffffa;}</style><style
       id="style1-9">.e{fill:#fff;}.f{fill:url(#c);}</style><style
       id="style1-37">.j,.k,.l{fill:#ef050f;}.k{filter:url(#d);}.m{clip-path:url(#c);}.n{fill:#b3050f;}.o{fill:none;}.p{clip-path:url(#f);}.l{filter:url(#g);}</style><style
       id="style1-93">.d{fill:#4e6aff;}</style><style
       id="style1-5">.d{fill:#1ed760;}</style><style
       id="style1-7">.d{fill:#1ed760;}</style><style
       id="style1-31">.d{fill:#4e6aff;}</style><style
       id="style1-59">.d{fill:#1ed760;}</style><style
       id="style1-1">.d{fill:#ff5900;}</style><style
       id="style1-76">.d{fill:#0065fe;}</style><style
       id="style1-94">.d{fill:#fffffa;}</style><style
       id="style1-6">.d{fill:#fff;}.e{fill:#5238ef;}</style><style
       id="style1-763">.d{fill:#fff;}</style><style
       id="style1-8">.d{fill:#ec2c23;}.e{fill:#f7f7f7;}</style><style
       id="style1-38">.d{fill:#fff;}.e{fill:#5238ef;}</style><style
       id="style1-4">.d{fill:#0065fe;}</style><style
       id="style1-0">.d{fill:#0065fe;}</style><style
       id="style1-84">.d{fill:#fff;}.e{fill:#5238ef;}</style><style
       id="style1-40">.d{fill:#ec2c23;}.e{fill:#f7f7f7;}</style><style
       id="style1-05">.d{fill:#edb800;}</style><style
       id="style1-72">.d{fill:#fff;}.e{fill:#ffb313;}</style><style
       id="style1-599">.d{fill:#109cfe;}</style><style
       id="style1-61">.e{fill:url(#c);}</style></defs><g
     id="layer12"
     transform="translate(-809.67925,293.90764)"><path
       d="m 818.92623,-293.90764 c -5.08543,0 -9.22579,4.14037 -9.22579,9.2258 0,1.66163 0.44385,3.22136 1.21646,4.56974 l -1.23765,4.76509 4.8364,-1.23404 c 1.31128,0.71715 2.8142,1.12552 4.41058,1.12552 5.08541,0 9.22579,-4.1409 9.22579,-9.22631 0,-5.08543 -4.14038,-9.2258 -9.22579,-9.2258 z m -2.42104,5.20589 h 5.2e-4 c 0.10389,-0.0178 0.20626,0.0389 0.24649,0.13642 l 0.84698,2.05517 c 0.0769,0.18695 0.0434,0.40138 -0.0873,0.55553 l -0.56173,0.66197 c -0.0892,0.10505 -0.0988,0.28286 -0.0201,0.39584 0.82956,1.18926 1.80359,2.22518 3.14296,2.87269 0.21872,0.0329 0.4054,0.0646 0.60151,-0.0496 l 0.67748,-0.88781 c 0.14264,-0.18693 0.39619,-0.24916 0.60927,-0.14986 l 1.6862,0.78548 c 0.16295,0.0759 0.25106,0.25514 0.21136,0.43047 l -0.12971,0.57257 c -0.0669,0.29556 -0.29503,0.71283 -0.54726,0.88005 -0.85159,0.56458 -1.68593,0.41505 -2.52232,0.33435 -2.33176,-0.72986 -3.70338,-2.17638 -4.96404,-3.7052 l -0.5457,-0.7798 c -0.79352,-1.57794 -0.40559,-2.76787 -0.0925,-3.35121 0.1248,-0.23253 0.46861,-0.46094 0.72192,-0.53744 z"
       style="fill-rule:evenodd;stroke-width:0.626798"
       id="path47" /></g></svg>
