<?xml version="1.0" encoding="UTF-8" standalone="no"?>
<!-- Created with Inkscape (http://www.inkscape.org/) -->

<svg
   width="65.120735"
   height="65.276352"
   viewBox="0 0 17.22986 17.271035"
   version="1.1"
   id="svg1"
   xml:space="preserve"
   xmlns="http://www.w3.org/2000/svg"
   xmlns:svg="http://www.w3.org/2000/svg"><defs
     id="defs1"><style
       id="style1">.e{fill:url(#c);}.f{fill:#fffffa;}</style><style
       id="style1-3">.d{fill:#fffffa;}</style><style
       id="style1-9">.e{fill:#fff;}.f{fill:url(#c);}</style><style
       id="style1-37">.j,.k,.l{fill:#ef050f;}.k{filter:url(#d);}.m{clip-path:url(#c);}.n{fill:#b3050f;}.o{fill:none;}.p{clip-path:url(#f);}.l{filter:url(#g);}</style><style
       id="style1-93">.d{fill:#4e6aff;}</style><style
       id="style1-5">.d{fill:#1ed760;}</style><style
       id="style1-7">.d{fill:#1ed760;}</style><style
       id="style1-31">.d{fill:#4e6aff;}</style><style
       id="style1-59">.d{fill:#1ed760;}</style><style
       id="style1-1">.d{fill:#ff5900;}</style><style
       id="style1-76">.d{fill:#0065fe;}</style><style
       id="style1-94">.d{fill:#fffffa;}</style><style
       id="style1-6">.d{fill:#fff;}.e{fill:#5238ef;}</style><style
       id="style1-763">.d{fill:#fff;}</style><style
       id="style1-8">.d{fill:#ec2c23;}.e{fill:#f7f7f7;}</style><style
       id="style1-38">.d{fill:#fff;}.e{fill:#5238ef;}</style><style
       id="style1-4">.d{fill:#0065fe;}</style><style
       id="style1-0">.d{fill:#0065fe;}</style><style
       id="style1-84">.d{fill:#fff;}.e{fill:#5238ef;}</style><style
       id="style1-40">.d{fill:#ec2c23;}.e{fill:#f7f7f7;}</style><style
       id="style1-05">.d{fill:#edb800;}</style><style
       id="style1-72">.d{fill:#fff;}.e{fill:#ffb313;}</style><style
       id="style1-599">.d{fill:#109cfe;}</style><style
       id="style1-61">.e{fill:url(#c);}</style></defs><g
     id="layer11"
     transform="translate(-780.63229,293.40362)"><path
       d="m 240.58851,4.5936511 c -1.79683,0 -3.24348,1.446366 -3.24348,3.243197 V 18.621202 c 0,1.796831 1.44665,3.243483 3.24348,3.243483 h 10.74318 c 1.79683,0 3.2432,-1.446652 3.2432,-3.243483 V 7.8368481 c 0,-1.796831 -1.44637,-3.243197 -3.2432,-3.243197 z m 10.16895,2.783133 a 1.2256885,1.2256885 0 0 1 1.22571,1.225711 1.2256885,1.2256885 0 0 1 -1.22571,1.225712 1.2256885,1.2256885 0 0 1 -1.22572,-1.225712 1.2256885,1.2256885 0 0 1 1.22572,-1.225711 z m -4.7975,1.95728 a 3.8950539,3.8950539 0 0 1 3.89525,3.8949579 3.8950539,3.8950539 0 0 1 -3.89525,3.89525 3.8950539,3.8950539 0 0 1 -3.89496,-3.89525 3.8950539,3.8950539 0 0 1 3.89496,-3.8949579 z"
       style="opacity:1;fill:#000000;fill-opacity:1;fill-rule:evenodd;stroke-width:2.05455"
       id="path152"
       transform="translate(543.28726,-297.99727)" /></g></svg>
